<mxfile host="app.diagrams.net" modified="2021-06-24T04:52:53.411Z" agent="5.0 (Windows NT 6.1; Win64; x64) AppleWebKit/537.36 (KHTML, like Gecko) Chrome/91.0.4472.114 Safari/537.36" etag="BsDZZZy0RupyJR-O_8lv" version="14.8.0" type="github">
  <diagram id="w_o0UAj6oia_h1gSR9Gx" name="Page-1">
    <mxGraphModel dx="2616" dy="708" grid="1" gridSize="10" guides="1" tooltips="1" connect="1" arrows="1" fold="1" page="1" pageScale="1" pageWidth="1169" pageHeight="1654" math="0" shadow="0">
      <root>
        <mxCell id="0" />
        <mxCell id="1" parent="0" />
        <mxCell id="erOd0dz8Uz3S73p-e_vw-5" value="&lt;h1&gt;Hyperledger Fabric - private blockchain&lt;/h1&gt;" style="rounded=1;whiteSpace=wrap;html=1;fillColor=#ffe6cc;strokeColor=#d79b00;" vertex="1" parent="1">
          <mxGeometry x="81" y="520" width="1030" height="50" as="geometry" />
        </mxCell>
        <mxCell id="erOd0dz8Uz3S73p-e_vw-7" style="edgeStyle=orthogonalEdgeStyle;rounded=0;orthogonalLoop=1;jettySize=auto;html=1;" edge="1" parent="1" source="erOd0dz8Uz3S73p-e_vw-6">
          <mxGeometry relative="1" as="geometry">
            <mxPoint x="175" y="570" as="targetPoint" />
          </mxGeometry>
        </mxCell>
        <mxCell id="erOd0dz8Uz3S73p-e_vw-6" value="&lt;h2&gt;Manufacturer&lt;/h2&gt;" style="rounded=0;whiteSpace=wrap;html=1;fillColor=#dae8fc;strokeColor=#6c8ebf;" vertex="1" parent="1">
          <mxGeometry x="85" y="810" width="180" height="50" as="geometry" />
        </mxCell>
        <mxCell id="erOd0dz8Uz3S73p-e_vw-9" value="&lt;h2&gt;1. Sends sample to SCA&lt;/h2&gt;" style="text;html=1;align=center;verticalAlign=middle;resizable=0;points=[];autosize=1;strokeColor=none;" vertex="1" parent="1">
          <mxGeometry x="-54" y="750" width="220" height="50" as="geometry" />
        </mxCell>
        <mxCell id="erOd0dz8Uz3S73p-e_vw-13" style="edgeStyle=orthogonalEdgeStyle;rounded=0;orthogonalLoop=1;jettySize=auto;html=1;entryX=0.085;entryY=-0.06;entryDx=0;entryDy=0;entryPerimeter=0;" edge="1" parent="1" source="erOd0dz8Uz3S73p-e_vw-11" target="erOd0dz8Uz3S73p-e_vw-5">
          <mxGeometry relative="1" as="geometry" />
        </mxCell>
        <mxCell id="erOd0dz8Uz3S73p-e_vw-11" value="&lt;h2&gt;Seed Certification Agency (SCA)&lt;/h2&gt;" style="rounded=0;whiteSpace=wrap;html=1;fillColor=#dae8fc;strokeColor=#6c8ebf;" vertex="1" parent="1">
          <mxGeometry x="81" y="140" width="180" height="50" as="geometry" />
        </mxCell>
        <mxCell id="erOd0dz8Uz3S73p-e_vw-15" value="&lt;h2&gt;2. Get sample from&amp;nbsp;&lt;/h2&gt;&lt;h2&gt;manufacturer&lt;/h2&gt;" style="text;html=1;align=center;verticalAlign=middle;resizable=0;points=[];autosize=1;strokeColor=none;" vertex="1" parent="1">
          <mxGeometry x="-40" y="210" width="180" height="80" as="geometry" />
        </mxCell>
        <mxCell id="erOd0dz8Uz3S73p-e_vw-17" value="&lt;h2&gt;3.Issues certificate of&amp;nbsp;&lt;/h2&gt;&lt;h2&gt;seed or rejects.&lt;/h2&gt;" style="text;html=1;align=center;verticalAlign=middle;resizable=0;points=[];autosize=1;strokeColor=none;" vertex="1" parent="1">
          <mxGeometry x="-50" y="400" width="200" height="80" as="geometry" />
        </mxCell>
        <mxCell id="erOd0dz8Uz3S73p-e_vw-19" value="&lt;h2&gt;4. Lot transfer to&amp;nbsp;&lt;/h2&gt;&lt;h2&gt;Distributors&lt;/h2&gt;" style="text;html=1;align=center;verticalAlign=middle;resizable=0;points=[];autosize=1;strokeColor=none;" vertex="1" parent="1">
          <mxGeometry x="6" y="600" width="160" height="80" as="geometry" />
        </mxCell>
        <mxCell id="erOd0dz8Uz3S73p-e_vw-21" style="edgeStyle=orthogonalEdgeStyle;rounded=0;orthogonalLoop=1;jettySize=auto;html=1;" edge="1" parent="1" source="erOd0dz8Uz3S73p-e_vw-20">
          <mxGeometry relative="1" as="geometry">
            <mxPoint x="510" y="580" as="targetPoint" />
          </mxGeometry>
        </mxCell>
        <mxCell id="erOd0dz8Uz3S73p-e_vw-20" value="&lt;h2&gt;Distributor&lt;/h2&gt;" style="rounded=0;whiteSpace=wrap;html=1;fillColor=#dae8fc;strokeColor=#6c8ebf;" vertex="1" parent="1">
          <mxGeometry x="420" y="810" width="180" height="50" as="geometry" />
        </mxCell>
        <mxCell id="erOd0dz8Uz3S73p-e_vw-22" value="&lt;h2&gt;5.&lt;/h2&gt;" style="text;html=1;align=center;verticalAlign=middle;resizable=0;points=[];autosize=1;strokeColor=none;" vertex="1" parent="1">
          <mxGeometry x="375" y="740" width="30" height="50" as="geometry" />
        </mxCell>
      </root>
    </mxGraphModel>
  </diagram>
</mxfile>
